<?xml version="1.0" encoding="UTF-8"?>
<svg id="Layer_1" data-name="Layer 1" xmlns="http://www.w3.org/2000/svg" viewBox="0 0 1024 1024">
  <defs>
    <style>
      .cls-1 {
        fill: #fff;
      }

      .cls-2 {
        fill: #63f;
      }
    </style>
  </defs>
  <rect class="cls-2" width="1024" height="1024" rx="50" ry="50"/>
  <g>
    <path class="cls-1" d="M329.32,417.45c8.77,3.25,18.24,5.02,28.11,5.02s19.41-1.79,28.19-5.04c30.82-11.48,52.83-41.22,52.83-75.98,0-44.68-36.34-81.02-81.02-81.02s-81.04,36.34-81.04,81.02c0,34.81,22.07,64.55,52.93,76ZM357.42,306.45c19.33,0,35,15.67,35,35s-15.67,35-35,35-35-15.67-35-35,15.67-35,35-35Z"/>
    <path class="cls-1" d="M640.68,417.45c30.86-11.45,52.93-41.19,52.93-76,0-44.68-36.36-81.02-81.05-81.02s-81.02,36.34-81.02,81.02c0,34.76,22.02,64.5,52.83,75.98,8.77,3.25,18.29,5.04,28.19,5.04s19.34-1.77,28.11-5.02ZM577.58,341.45c0-19.33,15.67-35,35-35s35,15.67,35,35-15.67,35-35,35-35-15.67-35-35Z"/>
    <path class="cls-1" d="M851.25,642.5l-.02.02c-24.02-12.57-50.46,2.05-60.98,12.77-12.87,13.08-30.87,19.79-49.17,18.33-9.03-.79-17.78-3.51-25.66-7.98-7.9-4.51-14.71-10.69-19.97-18.11-1.27-1.84-2.44-3.76-3.49-5.74,84.34-63.63,133.77-163.28,133.4-268.93-.19-185.71-152.07-336.45-337.59-335.15-184.37,1.29-333.32,151.3-333.32,336.08,0,120.22,63.18,225.82,157.98,285.19-.38,2.98-.93,5.94-1.66,8.86-2.22,8.88-6.47,17.04-12.21,24.04-5.71,7.03-12.94,12.59-21.24,16.48-2.04.97-4.14,1.84-6.28,2.59q-.19,0-.37.17l-2.05.56c-8.58,2.46-17.58,3.1-26.42,1.85-14.77-2.22-54.88-3.71-65.6,23.68-9.79,25.14,10.72,44.38,31.98,51.04,3.88,1.29,7.76,2.22,11.82,3.15,2.95.93,5.91,1.66,8.86,2.03,7.2,1.12,14.6,1.66,22,1.66,13.67,0,27.17-2.03,40.11-5.91q.17,0,.35-.19.19,0,.37-.17c1.85-.56,3.88-1.12,5.74-1.85,17.7-6.13,34.03-15.69,48.05-28.12,3.13-2.79,6.03-5.82,8.69-9.06,2.02-2.18,3.99-4.4,5.91-6.66.93-1.1,1.66-2.22,2.59-3.32.17-.19.17-.37.37-.56,4.25-5.54,8.13-11.28,11.45-17.38,0,0,0-.19.19-.19,1.29-2.39,4.98-.93,4.05,1.66-.17.39-.17.56-.37.93-8.48,26.29-20.95,51.12-36.96,73.62-13.05,18.27-28.24,34.92-45.24,49.58-18.29,15.53-25.12,41.79-12.74,62.32,12.38,20.53,39.16,27.17,58.01,12.4,57.91-45.55,100.31-107.9,121.41-178.49.93-3.34,2.22-7.96,3.32-12.77.73-3.32,5.74-2.78,5.74.56.17,4.25.17,8.5.17,12.57-.57,37.01-8.68,73.51-23.83,107.28-9.26,20.47-20.99,39.72-34.93,57.34-14.97,18.67-16.43,45.87-.37,63.61,16.09,17.75,43.62,19.24,59.3,1.1,22.41-25.99,40.96-55.08,55.08-86.36,20.16-44.54,30.86-92.79,31.42-141.68v-11.11c0-2.59,3.69-3.13,4.42-.73l2.98,10.74c6.25,27.37,8.3,55.48,5.91,83.58-1.88,22.39-6.59,44.46-14.04,65.66-7.96,22.58-.39,48.84,20.7,60.12,21.09,11.28,47.46,3.51,56.15-18.7,23.33-59.53,30.21-124.24,19.95-187.35-1.29-8.52-3.13-16.82-4.98-25.17-.56-2.03,2.03-3.69,3.69-2.2,6.66,5.71,13.87,10.72,21.43,15.16,18.12,10.39,38.31,16.64,59.13,18.31,20.83,1.64,41.76-1.27,61.35-8.52,26.62-9.99,49.65-27.69,66.14-50.85,13.13-17.57,9.06-41.43-10.7-51.8ZM583.13,497.41c-2.35,40.8-47.99,76.94-98.13,76.27-50.15.66-95.78-35.47-98.13-76.27-.56-9.76,3.78-21.07,15.57-25.34,9.64-3.49,19.67-3.28,29.65-.65,15.86,4.19,31.52,11.83,48.45,12.77.68.04,1.37.06,2.07.08.04,0,.08,0,.12,0,.44.01.89.01,1.33.02.32,0,.64,0,.95,0s.64,0,.95,0c.44,0,.89,0,1.33-.02.04,0,.08,0,.12,0,.69-.02,1.39-.05,2.07-.08,16.92-.94,32.58-8.58,48.45-12.77,9.98-2.64,20.01-2.85,29.65.65,11.79,4.27,16.13,15.58,15.57,25.34ZM612.57,446.37c-.88,0-1.76-.01-2.64-.03-.29,0-.57-.02-.85-.03-.59-.02-1.18-.04-1.77-.07-.34-.02-.68-.04-1.01-.06-.53-.03-1.07-.06-1.6-.1-.35-.03-.7-.06-1.05-.09-.51-.04-1.03-.09-1.54-.14-.36-.04-.71-.08-1.07-.12-.5-.06-1.01-.11-1.51-.17-.36-.04-.72-.09-1.07-.14-.5-.07-1-.14-1.49-.21-.35-.05-.71-.11-1.06-.17-.5-.08-.99-.16-1.49-.25-.35-.06-.69-.13-1.04-.19-.5-.09-.99-.19-1.49-.29-.34-.07-.67-.14-1.01-.21-.5-.11-1-.21-1.5-.33-.33-.07-.66-.15-.98-.23-.51-.12-1.01-.24-1.51-.37-.32-.08-.63-.16-.94-.24-.51-.13-1.02-.27-1.54-.42-.3-.08-.6-.17-.9-.25-.53-.15-1.05-.31-1.57-.47-.28-.09-.56-.17-.84-.26-.54-.17-1.08-.35-1.62-.53-.25-.08-.51-.17-.76-.26-.57-.19-1.13-.39-1.69-.6-.22-.08-.45-.16-.67-.24-.6-.22-1.2-.45-1.79-.68-.18-.07-.36-.14-.54-.21-.66-.26-1.32-.53-1.98-.81-.11-.05-.22-.09-.33-.14-3.9-1.65-7.68-3.54-11.32-5.63-.03-.02-.07-.04-.1-.06-.68-.39-1.36-.8-2.04-1.2-.1-.06-.2-.13-.3-.19-.6-.37-1.2-.74-1.8-1.12-.14-.09-.28-.18-.42-.27-.55-.36-1.1-.72-1.65-1.09-.16-.11-.32-.22-.49-.33-.52-.35-1.04-.71-1.55-1.07-.18-.13-.35-.25-.53-.38-.49-.35-.98-.71-1.47-1.07-.19-.14-.37-.28-.56-.42-.47-.35-.94-.71-1.4-1.08-.2-.15-.39-.31-.58-.46-.45-.36-.9-.72-1.34-1.08-.2-.16-.4-.33-.6-.49-.43-.36-.86-.72-1.29-1.09-.2-.17-.41-.35-.61-.53-.42-.36-.83-.73-1.24-1.1-.21-.19-.41-.37-.62-.56-.4-.36-.79-.73-1.19-1.1-.21-.2-.42-.4-.63-.6-.38-.37-.76-.74-1.13-1.11-.21-.21-.43-.42-.64-.63-.37-.37-.73-.74-1.09-1.11-.22-.22-.43-.44-.64-.67-.35-.37-.69-.74-1.03-1.11-.22-.24-.44-.47-.66-.71-.32-.36-.64-.72-.96-1.08-.23-.26-.46-.52-.69-.78-.28-.33-.56-.66-.84-.99-.25-.3-.51-.6-.76-.9-.19-.23-.38-.47-.57-.71-1.32-1.63-2.59-3.29-3.81-4.99,0,0-.01-.02-.02-.03-.42-.58-.82-1.17-1.23-1.76-.05-.08-.11-.15-.16-.23-.39-.58-.78-1.16-1.16-1.75-.06-.09-.12-.18-.18-.27-.38-.59-.75-1.18-1.12-1.78-.05-.09-.11-.18-.17-.26-.37-.61-.74-1.22-1.1-1.83-.05-.08-.09-.16-.14-.24-.37-.63-.73-1.26-1.08-1.89-.04-.07-.07-.13-.11-.2-.36-.65-.72-1.31-1.07-1.97-.02-.04-.05-.09-.07-.13-.36-.69-.71-1.38-1.06-2.07,0-.01-.01-.03-.02-.04-5.72-11.53-9.38-24.26-10.49-37.69-20.65-5.9-37.38-2.88-45.98-.34-.03.38-.07.76-.11,1.15-.04.43-.07.86-.12,1.29-.04.4-.09.8-.14,1.21-.05.46-.1.91-.16,1.37-.02.18-.05.36-.08.54-.17,1.24-.36,2.48-.56,3.71-.04.25-.08.49-.12.74-.09.53-.2,1.06-.3,1.59-.06.3-.11.61-.18.91-.1.51-.22,1.02-.33,1.53-.07.32-.13.63-.21.95-.11.5-.24,1-.36,1.5-.08.32-.15.64-.23.95-.13.5-.26,1-.4,1.5-.08.31-.17.62-.25.93-.14.5-.29,1-.44,1.5-.09.3-.18.6-.27.9-.15.5-.31,1-.47,1.5-.09.29-.19.59-.29.88-.17.5-.34,1-.51,1.5-.1.28-.2.57-.3.85-.18.5-.37,1-.55,1.5-.1.27-.21.54-.31.82-.2.51-.39,1.01-.6,1.51-.1.26-.21.52-.32.78-.21.51-.43,1.02-.64,1.52-.11.24-.21.49-.32.73-.23.52-.46,1.03-.69,1.54-.1.23-.21.45-.32.68-.25.52-.49,1.05-.75,1.56-.1.2-.2.41-.3.61-.27.54-.54,1.07-.81,1.6-.09.18-.19.35-.28.53-.29.55-.59,1.1-.89,1.65-.08.14-.16.28-.23.42-.32.58-.65,1.16-.98,1.73-.05.09-.1.17-.15.26-3.59,6.13-7.78,11.86-12.49,17.12-.04.05-.09.1-.13.14-.47.52-.95,1.04-1.43,1.56-.07.08-.15.16-.22.24-.46.49-.94.98-1.41,1.46-.09.1-.19.19-.28.29-.46.47-.93.93-1.4,1.39-.11.11-.22.21-.33.32-.47.45-.94.9-1.41,1.34-.12.11-.24.22-.36.33-.47.43-.95.86-1.42,1.29-.13.11-.26.23-.38.34-.47.42-.95.83-1.44,1.24-.14.12-.27.23-.41.35-.48.41-.97.81-1.46,1.21-.14.11-.28.22-.41.33-.49.4-.99.79-1.49,1.18-.14.11-.27.21-.41.32-.51.39-1.02.77-1.53,1.15-.13.1-.26.19-.4.29-.52.38-1.05.76-1.58,1.14-.12.08-.24.16-.35.25-.55.38-1.1.76-1.66,1.14-.1.06-.19.13-.29.19-.58.39-1.17.77-1.76,1.15-.05.03-.11.07-.16.1-3.96,2.51-8.11,4.77-12.41,6.74-.07.03-.13.06-.2.09-.58.26-1.16.52-1.74.77-.18.08-.36.16-.54.24-.53.23-1.06.44-1.6.66-.24.1-.47.2-.71.29-.5.2-1.01.39-1.51.59-.28.11-.55.21-.83.32-.48.18-.96.35-1.45.52-.31.11-.61.22-.92.32-.47.16-.94.32-1.4.47-.33.11-.66.22-.99.32-.46.15-.92.29-1.38.42-.35.1-.69.21-1.04.31-.45.13-.9.26-1.35.38-.36.1-.72.2-1.09.3-.44.12-.89.23-1.34.34-.38.09-.75.19-1.13.28-.44.1-.88.21-1.32.31-.39.09-.78.17-1.18.26-.43.09-.86.18-1.29.27-.41.08-.82.16-1.23.24-.42.08-.85.16-1.27.23-.42.07-.85.14-1.27.21-.42.07-.83.14-1.25.2-.44.07-.88.12-1.32.18-.41.06-.82.11-1.23.16-.45.06-.91.11-1.36.16-.4.04-.8.09-1.2.13-.48.05-.96.09-1.44.13-.38.03-.77.07-1.15.1-.51.04-1.02.07-1.53.1-.36.02-.72.05-1.08.07-.58.03-1.16.05-1.74.07-.29,0-.59.02-.88.03-.88.02-1.76.03-2.64.03-57.86,0-104.95-47.07-104.95-104.93,0-1.42.04-2.84.09-4.25.03-.96.09-1.91.15-2.85,0-.06,0-.12.01-.18,0-.03,0-.06,0-.09,0-.03,0-.06,0-.08.03-.42.08-.83.11-1.24.1-1.23.22-2.45.37-3.66.07-.62.13-1.25.22-1.86.01-.09.03-.19.04-.28.1-.68.21-1.36.32-2.04.06-.42.12-.84.2-1.25.04-.22.08-.43.11-.65,0-.04.01-.07.02-.11.17-.93.34-1.84.53-2.76.09-.42.18-.84.28-1.26.08-.37.15-.73.24-1.1.1-.45.21-.89.31-1.34,0-.02,0-.04.01-.06.04-.18.08-.36.13-.54.17-.67.33-1.34.53-1.98.04-.16.09-.31.14-.47.32-1.15.66-2.3,1.02-3.44.05-.15.09-.3.13-.45.31-.92.62-1.87.94-2.77.09-.25.17-.5.26-.75.07-.19.14-.38.2-.57.59-1.62,1.23-3.23,1.91-4.8.2-.47.4-.93.6-1.4.32-.74.65-1.47,1-2.2.16-.34.33-.69.49-1.03.36-.76.73-1.52,1.11-2.27.05-.07.1-.14.12-.22.53-1.03,1.08-2.03,1.63-3.01.02-.02.05-.07.05-.1.55-.98,1.12-1.96,1.72-2.94,18.36-30.51,51.81-50.95,89.94-50.95s71.53,20.42,89.89,50.87c.6.98,1.17,1.98,1.75,2.99.5.9.99,1.8,1.44,2.7.07.13.14.25.2.37.05.09.1.18.15.28.47.92.94,1.83,1.36,2.77.07.15.14.31.21.46.43.92.85,1.83,1.27,2.77.45,1.05.91,2.13,1.34,3.23.2.5.38,1.01.56,1.52.29.76.57,1.51.84,2.28.28.78.54,1.57.8,2.35,0,0,0,.01,0,.02.1.3.19.6.29.9.26.82.51,1.65.75,2.48.08.29.16.57.24.86.27.93.51,1.88.75,2.83.33,1.31.63,2.64.9,3.97.13.59.24,1.19.35,1.8.05.25.1.5.15.76.01.06.03.12.04.19,0,.04.01.07.02.11.08.42.14.85.21,1.27.07.4.14.79.2,1.19,11.39-2.57,28.11-4.23,47.69.27,0-.03,0-.06.01-.09,0-.06,0-.13.02-.17.06-.41.14-.82.21-1.23.07-.41.13-.82.21-1.23,0-.04.01-.08.02-.12,0-.07.03-.13.04-.2.04-.25.1-.49.14-.74.11-.61.22-1.22.35-1.82.27-1.32.57-2.64.9-3.95.24-.95.48-1.9.75-2.84.08-.29.16-.58.25-.87.23-.83.48-1.65.75-2.47.1-.3.19-.6.29-.9,0,0,0-.01,0-.02.25-.78.52-1.57.8-2.35.27-.76.55-1.51.83-2.27.19-.51.37-1.03.57-1.53.43-1.1.88-2.18,1.34-3.23.41-.92.82-1.82,1.25-2.72.08-.17.16-.35.24-.52.42-.93.89-1.85,1.36-2.76.05-.1.1-.19.15-.28.06-.13.14-.25.2-.37.45-.9.95-1.8,1.44-2.7.57-1,1.15-2.01,1.75-2.99,18.36-30.46,51.78-50.87,89.89-50.87s71.58,20.44,89.94,50.95c.6.98,1.17,1.96,1.72,2.94,0,.02.02.07.05.1.55.98,1.1,1.98,1.63,3.01.02.07.07.14.12.22.37.75.74,1.5,1.1,2.26.17.35.34.69.5,1.04.35.72.68,1.46,1,2.2.2.46.4.92.6,1.38.69,1.58,1.33,3.18,1.92,4.81.06.19.13.38.2.57.09.25.18.5.26.74.33.91.64,1.85.95,2.78.05.15.09.31.14.46.36,1.14.7,2.28,1.02,3.43.04.16.09.31.14.46.19.65.36,1.32.53,1.98.05.18.08.36.13.55,0,.01,0,.03.01.04.11.45.22.9.32,1.35.09.37.16.74.24,1.1.09.42.19.83.28,1.25.19.92.37,1.84.53,2.76,0,.04.01.07.02.11.04.21.08.43.11.64.07.42.14.83.2,1.25.11.68.22,1.36.32,2.05.01.09.03.19.04.28.09.6.15,1.23.21,1.85.15,1.27.28,2.54.38,3.83.03.36.07.72.1,1.09,0,.03,0,.05,0,.08,0,.04,0,.08,0,.11,0,.06.01.11.01.17.06.93.11,1.89.15,2.84.06,1.41.09,2.83.09,4.26,0,57.85-47.1,104.93-104.95,104.93Z"/>
  </g>
</svg>